<svg width="16" height="14" fill="none" xmlns="http://www.w3.org/2000/svg"><g filter="url(#a)"><path d="M11.516 0C10.039 0 8.756.666 8 1.782 7.245.666 5.96 0 4.484 0A4.224 4.224 0 0 0 .266 4.219c0 2.053 1.28 4.19 3.804 6.35A23.534 23.534 0 0 0 7.8 13.17a.422.422 0 0 0 .4 0 23.535 23.535 0 0 0 3.73-2.601c2.525-2.16 3.804-4.297 3.804-6.35A4.224 4.224 0 0 0 11.516 0ZM8 12.312c-1.154-.665-6.89-4.175-6.89-8.093A3.379 3.379 0 0 1 4.483.844c1.426 0 2.624.761 3.126 1.987a.422.422 0 0 0 .78 0c.502-1.226 1.7-1.987 3.126-1.987a3.379 3.379 0 0 1 3.375 3.375c0 3.918-5.737 7.428-6.891 8.093Z" fill="#fff" fill-opacity=".76"/><path d="M8 12.312c-1.154-.665-6.89-4.175-6.89-8.093A3.379 3.379 0 0 1 4.483.844c1.426 0 2.624.761 3.126 1.987a.422.422 0 0 0 .78 0c.502-1.226 1.7-1.987 3.126-1.987a3.379 3.379 0 0 1 3.375 3.375c0 3.918-5.737 7.428-6.891 8.093Z" fill="#EB5757" fill-opacity=".99"/></g><defs><filter id="a" x="-3.734" y="-4" width="23.469" height="21.221" filterUnits="userSpaceOnUse" color-interpolation-filters="sRGB"><feFlood flood-opacity="0" result="BackgroundImageFix"/><feGaussianBlur in="BackgroundImageFix" stdDeviation="2"/><feComposite in2="SourceAlpha" operator="in" result="effect1_backgroundBlur_2514_26362"/><feBlend in="SourceGraphic" in2="effect1_backgroundBlur_2514_26362" result="shape"/></filter></defs></svg>