<svg width="40" height="40" fill="none" xmlns="http://www.w3.org/2000/svg"><circle cx="20" cy="20" r="20" fill="#37BC4A"/><g clip-path="url(#a)"><path d="M27.705 12.197A10.82 10.82 0 0 0 19.995 9c-6.01 0-10.902 4.891-10.902 10.902 0 1.92.501 3.796 1.454 5.45L9 31l5.78-1.517a10.869 10.869 0 0 0 5.21 1.325h.005c6.006 0 11.005-4.89 11.005-10.901 0-2.912-1.238-5.648-3.295-7.71Zm-7.71 16.775a9.045 9.045 0 0 1-4.616-1.262l-.329-.197-3.428.899.914-3.344-.216-.344a9.032 9.032 0 0 1-1.385-4.822c0-4.994 4.066-9.06 9.065-9.06 2.421 0 4.695.942 6.404 2.656 1.709 1.714 2.76 3.988 2.755 6.409 0 4.999-4.17 9.065-9.164 9.065Zm4.97-6.787c-.27-.137-1.611-.795-1.861-.884-.25-.093-.433-.137-.614.138-.182.275-.702.884-.865 1.07-.157.182-.319.207-.589.07-1.6-.801-2.652-1.43-3.707-3.242-.28-.481.28-.447.8-1.488.088-.182.044-.339-.024-.476-.07-.138-.614-1.478-.84-2.024-.221-.53-.447-.456-.614-.466-.157-.01-.339-.01-.52-.01-.182 0-.477.069-.727.339-.25.275-.953.933-.953 2.274 0 1.34.977 2.637 1.11 2.818.137.182 1.92 2.932 4.655 4.116 1.729.746 2.406.81 3.27.682.526-.078 1.611-.658 1.837-1.296.226-.639.226-1.184.157-1.297-.064-.122-.245-.191-.515-.324Z" fill="#fff"/></g><defs><clipPath id="a"><path fill="#fff" transform="translate(9 9)" d="M0 0h22v22H0z"/></clipPath></defs></svg>