<svg width="40" height="40" fill="none" xmlns="http://www.w3.org/2000/svg"><g clip-path="url(#a)"><rect width="40" height="40" rx="20" fill="#fff"/><path d="M20 0C8.954 0 0 8.954 0 20s8.954 20 20 20 20-8.954 20-20S31.046 0 20 0Zm9.27 13.602c-.3 3.162-1.603 10.837-2.266 14.379-.28 1.498-.832 2-1.367 2.05-1.16.107-2.043-.767-3.168-1.505-1.76-1.154-2.755-1.872-4.463-2.998-1.975-1.301-.695-2.016.43-3.185.295-.306 5.412-4.961 5.511-5.383.013-.053.025-.25-.093-.354-.117-.103-.29-.068-.414-.04-.176.04-2.988 1.899-8.436 5.576-.798.548-1.521.815-2.169.801-.714-.015-2.088-.404-3.109-.736-1.252-.407-2.248-.622-2.161-1.314.045-.36.541-.728 1.488-1.104 5.83-2.54 9.718-4.215 11.663-5.025 5.555-2.31 6.709-2.711 7.461-2.724.166-.003.535.038.775.232.16.139.261.332.285.542.04.26.052.525.033.788Z" fill="#27A7E9"/></g><defs><clipPath id="a"><rect width="40" height="40" rx="20" fill="#fff"/></clipPath></defs></svg>