<svg width="40" height="40" fill="none" xmlns="http://www.w3.org/2000/svg"><circle cx="20" cy="20" r="20" fill="#FAA727"/><g clip-path="url(#a)"><path d="M20 12.5c-4.14 0-7.5 3.36-7.5 7.5 0 4.14 3.36 7.5 7.5 7.5.691 0 1.25.559 1.25 1.25S20.691 30 20 30c-5.523 0-10-4.477-10-10s4.477-10 10-10 10 4.477 10 10v1.25a3.751 3.751 0 0 1-6.61 2.426 5 5 0 1 1-.473-7.734 1.249 1.249 0 0 1 2.082.934V21.249c.001.691.56 1.25 1.251 1.25.691 0 1.25-.559 1.25-1.25V20c0-4.14-3.36-7.5-7.5-7.5Zm2.5 7.5a2.5 2.5 0 1 0-5 0 2.5 2.5 0 0 0 5 0Z" fill="#fff"/></g><defs><clipPath id="a"><path fill="#fff" transform="translate(10 10)" d="M0 0h20v20H0z"/></clipPath></defs></svg>