<svg width="18" height="18" fill="none" xmlns="http://www.w3.org/2000/svg"><path d="M16.5 6.75v4.5c0 1.875-.375 3.187-1.215 4.035L10.5 10.5l5.797-5.798c.136.593.203 1.268.203 2.048ZM16.297 4.702 4.702 16.297C2.445 15.78 1.5 14.22 1.5 11.25v-4.5C1.5 3 3 1.5 6.75 1.5h4.5c2.97 0 4.53.945 5.047 3.202Z" stroke="#2C2E35" stroke-linecap="round" stroke-linejoin="round"/><path d="M15.286 15.285c-.848.84-2.16 1.215-4.035 1.215h-4.5c-.78 0-1.455-.067-2.048-.203l5.798-5.797 4.785 4.785Z" stroke="#2C2E35" stroke-linecap="round" stroke-linejoin="round"/><path d="M4.68 5.985c.51-2.197 3.81-2.197 4.32 0 .293 1.29-.517 2.385-1.23 3.06a1.35 1.35 0 0 1-1.86 0c-.712-.675-1.53-1.77-1.23-3.06Z" stroke="#2C2E35"/><path d="M6.82 6.525h.007" stroke="#2C2E35" stroke-linecap="round" stroke-linejoin="round"/></svg>