<svg width="388" height="91" fill="none" xmlns="http://www.w3.org/2000/svg"><path d="M14.552 66.204c0 1.544-.371 1.915-2.101 1.915H2.874c-1.483 0-2.1-.433-2.1-1.915V10.472c0-4.757 1.482-6.426 5.93-6.426h3.832c3.769 0 4.634.618 6.858 4.14L32.902 31.85l7.847 12.358h.433V6.023c0-1.482.37-1.915 2.1-1.915h9.577c1.36 0 2.101.618 2.101 1.915v55.794c0 3.954-1.174 6.302-5.931 6.302h-3.831c-3.77 0-4.634-.618-6.858-4.016l-14.644-22.12-8.774-13.593h-.432v37.814h.062ZM106.058 39.635c0 6.302-2.534 8.218-6.859 8.218H75.844c.247 7.785 4.82 10.07 10.936 10.07 3.584 0 7.291-.926 10.504-2.285 1.483-.433 1.853-.371 2.286.617l2.904 6.55c.432 1.112.185 1.545-.803 2.224-4.449 2.904-11.06 4.14-16.188 4.14-16.003 0-23.48-7.6-23.48-24.777 0-16.064 8.836-25.394 22.676-25.394 14.273 0 21.379 7.353 21.379 20.637Zm-29.967-.31h17.115c0-5.375-1.854-9.39-8.218-9.39-5.066 0-8.403 3.954-8.897 9.39ZM141.337 67.563c-4.448 1.359-9.329 1.544-12.542 1.544-10.504 0-14.644-4.448-14.644-13.16l.927-44.672c.062-1.483.742-1.915 2.101-2.286l8.403-2.719c1.112-.247 1.853.186 1.853 1.669v12.233h10.072c1.359 0 1.483.556 1.483 1.545v6.488c0 1.174 0 1.73-1.483 1.73h-10.072v23.231c0 3.584 1.73 4.634 5.314 4.634 1.73 0 5.19-.37 6.858-.617.989-.186 1.483.061 1.545.926l1.112 7.662c.124.803.433 1.36-.927 1.792ZM175.815 50.88l-4.14 12.976c-1.483 3.954-2.533 4.758-5.87 4.758H160.8c-2.904 0-4.572-.804-5.684-4.943l-10.442-41.953c-.371-1.36.185-1.669 1.359-1.669h10.319c1.483 0 2.039 0 2.348 1.483l3.089 16.25 2.471 14.829h.557l3.212-11.492 4.14-14.273c.989-3.028 2.101-4.387 5.499-4.387h4.758c3.213 0 3.769 1.73 4.757 4.387l4.202 14.087 3.274 11.801h.556l2.225-14.52 3.027-16.558c.247-1.36.556-1.483 2.039-1.483h.495c6.116-.062 10.627 5.684 9.082 11.616l-8.032 31.882c-1.112 4.14-2.842 4.943-5.746 4.943h-4.758c-3.398 0-4.448-.557-5.931-4.758l-4.016-13.16-3.584-12.42h-.433l-3.768 12.605ZM225.553 15.106c-4.14 0-7.6-3.213-7.6-7.476 0-4.325 3.46-7.6 7.6-7.6 4.201 0 7.661 3.275 7.661 7.6 0 4.325-3.336 7.476-7.661 7.476Zm4.448 53.013h-9.329a1.925 1.925 0 0 1-1.916-1.915V21.779c0-.927.742-1.668 1.668-1.668 6.426 0 11.616 5.19 11.616 11.616V66.45c0 1.42-.247 1.668-2.039 1.668ZM258.793 30.367V66.45c0 1.36-.185 1.669-1.915 1.669h-9.392c-1.359 0-1.915-.248-1.915-1.669V27.278c0-4.14.989-6.426 5.684-7.415 2.472-.432 9.701-.927 13.223-.927 16.991 0 24.838 6.426 24.838 23.665v23.85c0 1.359-.185 1.668-1.915 1.668h-9.516c-1.359 0-1.915-.248-1.915-1.669V41.797c0-7.97-2.348-11.862-10.936-11.862-1.174 0-3.646 0-6.241.432ZM369.021 69.663c-6.302 0-13.902-1.297-19.278-4.448-.988-.618-1.174-1.174-.556-2.348l2.657-6.303c.618-1.359 1.112-1.668 2.472-.988 3.83 1.668 10.318 3.274 14.149 3.274 4.386 0 5.931-1.73 5.931-4.016 0-2.471-2.224-3.83-8.341-6.117-9.7-3.645-15.076-7.29-15.076-14.828 0-7.97 5.746-14.335 17.795-14.335 5.499 0 11.43.989 16.064 3.09 1.359.618 1.298 1.112.803 2.533l-2.286 5.87c-.432 1.359-.927 1.359-2.286.926-4.449-1.359-8.032-2.1-12.048-2.1-3.275 0-4.634 1.915-4.634 3.46 0 2.471 2.039 3.645 7.599 5.746 8.774 3.398 16.003 6.611 16.003 15.879.062 9.886-7.661 14.705-18.968 14.705ZM340.97 22.644c-5.561-2.534-12.728-3.46-19.278-3.46-16.744 0-24.035 10.936-24.035 24.961 0 14.273 6.426 23.912 21.008 23.912 3.645 0 7.476-.37 10.689-1.36v.557c0 2.842-1.298 5.251-3.584 6.796-3.831 2.657-8.156 2.966-12.666 3.275-2.904.185-5.87.432-8.774.618a1.968 1.968 0 0 0-1.853 1.977v8.094c0 1.174.988 2.1 2.162 1.977 2.781-.185 5.623-.37 8.403-.618 1.668-.123 9.701-1.236 12.049-1.915a31.965 31.965 0 0 0 6.611-2.595c8.217-4.387 11.121-12.852 11.121-21.75v-37.75c0-1.298-.309-1.916-1.853-2.72Zm-11.493 32.87c-2.904.989-6.425 1.174-7.846 1.174-6.303 0-10.133-3.46-10.133-12.913 0-9.886 4.325-13.408 10.936-13.408 1.73 0 4.572.247 7.043.989v24.158Z" fill="#000"/></svg>