<svg width="19" height="18" fill="none" xmlns="http://www.w3.org/2000/svg"><path d="M2.758 8.415v3.368c0 3.367 1.35 4.717 4.717 4.717h4.043c3.367 0 4.717-1.35 4.717-4.717V8.415" stroke="#4B98FF" stroke-linecap="round" stroke-linejoin="round"/><path d="M9.5 9c1.373 0 2.385-1.117 2.25-2.49l-.495-5.01H7.753L7.25 6.51C7.115 7.883 8.128 9 9.5 9Z" stroke="#4B98FF" stroke-linecap="round" stroke-linejoin="round"/><path d="M14.232 9c1.515 0 2.625-1.23 2.475-2.737l-.21-2.063c-.27-1.95-1.02-2.7-2.985-2.7h-2.287l.525 5.258C11.877 7.995 12.995 9 14.232 9ZM4.73 9c1.238 0 2.356-1.005 2.476-2.242L7.37 5.1l.36-3.6H5.443c-1.965 0-2.715.75-2.985 2.7l-.202 2.063C2.106 7.77 3.216 9 4.73 9ZM9.5 12.75c-1.252 0-1.875.623-1.875 1.875V16.5h3.75v-1.875c0-1.252-.623-1.875-1.875-1.875Z" stroke="#4B98FF" stroke-linecap="round" stroke-linejoin="round"/></svg>