<svg width="24" height="24" fill="none" xmlns="http://www.w3.org/2000/svg"><rect width="24" height="24" rx="6" fill="#2C2E35"/><path fill-rule="evenodd" clip-rule="evenodd" d="M8.853 10.172c-1.227.536-2.488 1.086-3.642 1.721-.602.441.199.753.95 1.046.119.046.237.092.348.138.092.028.186.058.281.089.835.266 1.766.562 2.577.116 1.332-.765 2.588-1.65 3.844-2.533.412-.29.823-.579 1.237-.864l.065-.042c.352-.229 1.145-.743.852-.034-.694.758-1.436 1.43-2.183 2.104a47.1 47.1 0 0 0-1.502 1.398c-.43.349-.875 1.05-.394 1.54 1.107.775 2.232 1.531 3.357 2.288l1.097.738c.618.494 1.586.095 1.722-.677.06-.355.12-.71.182-1.066.335-1.962.671-3.926.968-5.895.04-.309.086-.618.132-.927.11-.749.221-1.498.256-2.251-.09-.752-1-.587-1.508-.418-2.606.992-5.186 2.057-7.756 3.141-.29.13-.586.258-.883.388Z" fill="#fff"/></svg>