<svg width="24" height="24" fill="none" xmlns="http://www.w3.org/2000/svg"><rect width="24" height="24" rx="6" fill="#2C2E35"/><path fill-rule="evenodd" clip-rule="evenodd" d="M12.687 16.307s.252-.027.382-.164c.118-.125.114-.36.114-.36s-.016-1.102.505-1.265c.514-.16 1.173 1.065 1.873 1.537.529.356.93.278.93.278l1.87-.026s.978-.059.514-.814c-.038-.062-.27-.558-1.39-1.579-1.173-1.068-1.015-.895.397-2.743.86-1.125 1.203-1.812 1.096-2.105-.102-.281-.735-.207-.735-.207l-2.105.013s-.156-.02-.272.047a.584.584 0 0 0-.186.222s-.332.87-.777 1.611c-.937 1.562-1.312 1.645-1.465 1.548-.357-.227-.268-.909-.268-1.393 0-1.515.234-2.146-.455-2.31-.229-.054-.397-.09-.983-.095-.751-.008-1.387.002-1.747.175-.24.115-.424.372-.311.387.139.018.454.083.62.306.216.288.209.935.209.935s.124 1.783-.29 2.004c-.283.152-.672-.158-1.508-1.576-.428-.726-.751-1.528-.751-1.528s-.063-.15-.174-.23c-.135-.098-.323-.129-.323-.129l-2 .013s-.301.008-.411.137c-.098.113-.008.35-.008.35s1.566 3.596 3.34 5.409c1.626 1.661 3.472 1.552 3.472 1.552h.837Z" fill="#fff"/></svg>