<svg width="24" height="24" fill="none" xmlns="http://www.w3.org/2000/svg"><rect width="24" height="24" rx="6" fill="#2C2E35"/><path fill-rule="evenodd" clip-rule="evenodd" d="m8.179 17.873-2.65.695.708-2.583-.167-.264A6.978 6.978 0 0 1 5 11.997C5.002 8.139 8.142 5 12.003 5c1.87 0 3.627.73 4.949 2.052A6.954 6.954 0 0 1 19 12.002C18.998 15.861 15.858 19 12 19h-.003a6.991 6.991 0 0 1-3.563-.975l-.255-.152Zm8.064-3.868c-.053-.088-.193-.14-.403-.246-.21-.105-1.245-.614-1.438-.684-.193-.07-.333-.105-.474.105-.14.21-.543.685-.666.825-.123.14-.246.158-.456.053-.21-.106-.888-.328-1.692-1.044-.626-.558-1.048-1.247-1.17-1.458-.124-.21-.014-.324.091-.429.095-.094.21-.246.316-.369.105-.122.14-.21.21-.35.07-.14.036-.264-.017-.369-.053-.105-.474-1.14-.649-1.562-.17-.41-.344-.355-.473-.361a8.396 8.396 0 0 0-.404-.007.773.773 0 0 0-.56.263c-.194.21-.737.72-.737 1.755s.754 2.035.859 2.176c.105.14 1.484 2.265 3.595 3.176.502.217.894.346 1.2.443.504.16.962.138 1.325.084.404-.06 1.245-.51 1.42-1 .176-.492.176-.913.123-1.001Z" fill="#fff"/></svg>