<svg width="27" height="27" fill="none" xmlns="http://www.w3.org/2000/svg"><path d="M13.5 0C6.044 0 0 6.046 0 13.503c0 2.728.811 5.273 2.206 7.396l-1.74 5.89 6.117-1.695A13.417 13.417 0 0 0 13.5 27C20.956 27 27 20.954 27 13.497 27 6.046 20.956 0 13.5 0Z" fill="#2EB05F"/><path d="M20.987 17.622a.498.498 0 0 0-.286-.413c-1.1-.509-2.206-1.017-3.306-1.526a.31.31 0 0 0-.365.08l-1.493 1.695a.407.407 0 0 1-.465.113 10.587 10.587 0 0 1-2.874-1.78 10.774 10.774 0 0 1-2.419-3.024 2.63 2.63 0 0 0 1.027-1.35c0-.006.006-.012.006-.012a2.305 2.305 0 0 0-.05-1.492c-.298-.796-.893-2.34-1.123-2.576-.04-.04-.084-.08-.084-.08a.987.987 0 0 0-.618-.248c-.078-.006-.163-.006-.252-.006a4.664 4.664 0 0 0-.657.017c-.477.068-.825.39-1.044.661a4.478 4.478 0 0 0-.786 1.436c-.016.056-.033.107-.05.164a4.069 4.069 0 0 0 .09 2.452c.258.74.634 1.622 1.2 2.554.96 1.588 2.004 2.572 2.712 3.222.796.74 1.784 1.65 3.35 2.407 1.448.7 2.762.96 3.643 1.068.359.034 1.021.04 1.779-.249.348-.135.64-.3.875-.474.623-.447 1.061-1.12 1.173-1.877v-.017c.04-.288.034-.536.017-.745Z" fill="#fff"/></svg>