<svg width="19" height="18" fill="none" xmlns="http://www.w3.org/2000/svg"><path d="M2 11.25h12.375A2.628 2.628 0 0 1 17 13.875a2.628 2.628 0 0 1-2.625 2.625 2.628 2.628 0 0 1-2.625-2.625V13.5M2 9h12.375A2.633 2.633 0 0 0 17 6.375a2.638 2.638 0 0 0-2.625-2.625 2.633 2.633 0 0 0-2.625 2.625v.375" stroke="#4B98FF" stroke-miterlimit="10" stroke-linecap="round" stroke-linejoin="round"/><path d="M2 6.75h5.482a2.018 2.018 0 1 0-2.017-2.018v.285" stroke="#4B98FF" stroke-miterlimit="10" stroke-linecap="round" stroke-linejoin="round"/></svg>