<svg width="209" height="32" fill="none" xmlns="http://www.w3.org/2000/svg"><path d="M23.834 30.405c.157.344.172.625.047.844-.095.22-.314.329-.66.329h-5.796c-.472 0-.864-.063-1.178-.188-.283-.156-.503-.438-.66-.845L10.78 19.708H7.717v10.838c0 .25-.063.485-.189.704-.094.22-.36.329-.8.329h-5.42c-.44 0-.738-.094-.895-.282-.126-.188-.189-.438-.189-.75V1.407c0-.282.063-.517.189-.704.157-.22.455-.329.895-.329h11.546c1.256 0 2.497.188 3.722.563a9.733 9.733 0 0 1 3.346 1.736c.974.751 1.76 1.737 2.357 2.956.596 1.19.895 2.612.895 4.27 0 .782-.094 1.596-.283 2.44a8.1 8.1 0 0 1-.848 2.346 9.158 9.158 0 0 1-1.602 2.112c-.66.625-1.461 1.157-2.404 1.595l5.797 12.012Zm-8.389-20.41c0-1.22-.377-2.081-1.13-2.582-.723-.5-1.634-.75-2.734-.75H7.717v6.991h3.77c.408 0 .848-.047 1.32-.14a3.517 3.517 0 0 0 1.272-.517c.408-.25.738-.61.99-1.08.25-.5.376-1.14.376-1.923ZM27.68 1.455c0-.313.062-.564.188-.751.157-.22.44-.329.848-.329h18.709c.66 0 .99.344.99 1.033v4.27c0 .28-.08.516-.236.703-.126.188-.393.282-.801.282H35.172v5.677h10.65c.723 0 1.084.329 1.084.986v4.27c0 .28-.078.515-.235.703-.126.188-.409.282-.849.282h-10.65v6.756h12.441c.691 0 1.037.344 1.037 1.032v4.27c0 .282-.079.516-.236.704-.125.157-.392.235-.8.235H28.715c-.408 0-.691-.094-.848-.282-.126-.188-.189-.422-.189-.704V1.455ZM62.722 32c-.502 0-1.13-.031-1.885-.094a23.075 23.075 0 0 1-2.403-.234 26.304 26.304 0 0 1-2.592-.423 17.961 17.961 0 0 1-2.403-.703c-.786-.313-1.226-.61-1.32-.892-.094-.282-.094-.641 0-1.08l.566-2.72c.157-.626.345-.97.565-1.033.22-.062.644-.047 1.273.047.565.063 1.193.14 1.884.235.692.062 1.399.125 2.121.187l2.168.188c.722.031 1.414.047 2.073.047 1.603 0 2.765-.25 3.488-.75.754-.501 1.13-1.252 1.13-2.253 0-.563-.078-1.017-.235-1.36a2.087 2.087 0 0 0-.801-.94c-.346-.25-.801-.453-1.367-.61a14.79 14.79 0 0 0-1.979-.515 57.552 57.552 0 0 1-4.006-.986c-1.32-.406-2.497-.954-3.534-1.642a8.312 8.312 0 0 1-2.545-2.674c-.628-1.095-.942-2.487-.942-4.176 0-1.533.267-2.894.8-4.082a7.854 7.854 0 0 1 2.263-2.956c1.005-.814 2.215-1.424 3.629-1.83 1.413-.438 2.984-.657 4.712-.657.44 0 1.005.015 1.697.047.722 0 1.492.047 2.309.14.848.094 1.696.235 2.544.423.88.187 1.697.438 2.45.75.786.282 1.226.58 1.32.892.094.282.11.641.047 1.08l-.66 2.768c-.062.312-.14.547-.235.703a.857.857 0 0 1-.377.282 3.245 3.245 0 0 1-.613.047c-.22-.031-.487-.063-.8-.094a53.053 53.053 0 0 0-3.3-.375c-1.099-.094-2.371-.141-3.816-.141-1.383 0-2.42.219-3.11.657-.66.438-.99 1.157-.99 2.158 0 .5.062.907.188 1.22.157.313.393.579.707.798.346.219.785.406 1.32.563.534.125 1.193.266 1.979.422 1.35.282 2.686.61 4.005.985 1.32.376 2.498.907 3.535 1.596 1.036.688 1.869 1.61 2.497 2.768.66 1.126.99 2.612.99 4.457 0 1.846-.346 3.394-1.037 4.646a8.269 8.269 0 0 1-2.78 3.003c-1.131.75-2.45 1.298-3.959 1.642-1.476.313-3 .469-4.57.469ZM100.236 5.677c0 .282-.078.517-.236.704-.125.188-.392.282-.8.282h-6.975v23.883c0 .25-.063.484-.189.703-.094.22-.36.329-.8.329h-5.42c-.409 0-.691-.094-.848-.282-.126-.188-.189-.438-.189-.75V6.663h-6.927c-.44 0-.723-.094-.848-.282-.126-.187-.189-.422-.189-.704v-4.27c0-.312.063-.562.189-.75.125-.188.408-.282.848-.282h21.347c.692 0 1.037.344 1.037 1.033v4.27ZM128.697 15.578c0 1.783-.141 3.644-.424 5.583a14.139 14.139 0 0 1-1.791 5.302c-.942 1.596-2.324 2.925-4.147 3.989-1.79 1.032-4.225 1.548-7.304 1.548-2.042 0-3.801-.235-5.278-.704-1.445-.5-2.67-1.157-3.676-1.97a9.834 9.834 0 0 1-2.356-2.863 16.53 16.53 0 0 1-1.319-3.472 21.127 21.127 0 0 1-.613-3.706 50.754 50.754 0 0 1-.141-3.707c0-.907.047-1.924.141-3.05.126-1.158.346-2.3.66-3.425a17.47 17.47 0 0 1 1.414-3.379 10.436 10.436 0 0 1 2.356-2.909c1.005-.844 2.23-1.517 3.675-2.017C111.34.266 113.068 0 115.078 0c2.953 0 5.31.47 7.069 1.408 1.791.907 3.173 2.111 4.147 3.613.974 1.47 1.618 3.143 1.932 5.02.314 1.846.471 3.691.471 5.537Zm-7.681.516c0-3.347-.424-5.787-1.272-7.32-.817-1.564-2.357-2.346-4.619-2.346-2.105 0-3.565.798-4.382 2.393-.786 1.564-1.178 3.988-1.178 7.273 0 3.16.377 5.537 1.131 7.132.785 1.564 2.262 2.346 4.429 2.346 2.231 0 3.77-.767 4.619-2.3.848-1.563 1.272-3.956 1.272-7.178ZM140.204 1.455c0-.313.063-.564.189-.751.157-.22.44-.329.848-.329h5.419c.44 0 .723.125.848.376.126.219.189.453.189.704V13.7c0 3.597-.016 6.788-.047 9.572 0 2.752-.833 4.895-2.498 6.428-1.633 1.533-4.225 2.299-7.775 2.299-.377 0-.833-.016-1.367-.047a15.802 15.802 0 0 1-1.602-.188 38.527 38.527 0 0 1-1.744-.234 11.995 11.995 0 0 1-1.602-.47c-.817-.28-1.335-.547-1.555-.797-.189-.25-.204-.673-.047-1.267l.707-3.05c.157-.469.298-.735.424-.797.125-.094.408-.11.848-.047.817.093 1.618.172 2.403.234.817.063 1.571.094 2.262.094.849 0 1.54-.078 2.074-.235.534-.187.942-.437 1.225-.75a2.22 2.22 0 0 0 .613-1.126c.125-.47.188-.97.188-1.502V1.455ZM180.15 15.578c0 1.783-.142 3.644-.424 5.583a14.174 14.174 0 0 1-1.791 5.302c-.943 1.596-2.325 2.925-4.147 3.989-1.791 1.032-4.226 1.548-7.304 1.548-2.042 0-3.802-.235-5.278-.704-1.446-.5-2.671-1.157-3.676-1.97a9.834 9.834 0 0 1-2.356-2.863 16.478 16.478 0 0 1-1.32-3.472 21.219 21.219 0 0 1-.612-3.706 50.215 50.215 0 0 1-.142-3.707c0-.907.047-1.924.142-3.05.125-1.158.345-2.3.659-3.425a17.532 17.532 0 0 1 1.414-3.379 10.453 10.453 0 0 1 2.356-2.909c1.006-.844 2.231-1.517 3.676-2.017C162.792.266 164.52 0 166.531 0c2.953 0 5.309.47 7.068 1.408 1.791.907 3.173 2.111 4.147 3.613.974 1.47 1.618 3.143 1.933 5.02.314 1.846.471 3.691.471 5.537Zm-7.682.516c0-3.347-.424-5.787-1.272-7.32-.817-1.564-2.356-2.346-4.618-2.346-2.105 0-3.566.798-4.383 2.393-.785 1.564-1.178 3.988-1.178 7.273 0 3.16.377 5.537 1.131 7.132.786 1.564 2.262 2.346 4.43 2.346 2.23 0 3.77-.767 4.618-2.3.848-1.563 1.272-3.956 1.272-7.178ZM208.776 22.334c0 1.47-.267 2.784-.801 3.942a9.06 9.06 0 0 1-2.168 2.909 9.498 9.498 0 0 1-3.157 1.783c-1.163.406-2.388.61-3.676.61h-12.771c-.44 0-.738-.094-.895-.282-.126-.188-.189-.438-.189-.75V1.454c0-.313.063-.564.189-.751.157-.188.44-.282.848-.282l11.97-.047c3.236 0 5.67.782 7.304 2.346 1.665 1.533 2.498 3.645 2.498 6.335 0 .375-.048.829-.142 1.36a7.061 7.061 0 0 1-.518 1.643c-.22.563-.566 1.11-1.037 1.642-.44.532-1.005.97-1.696 1.314l.047.187c.911.344 1.633.814 2.167 1.408.566.594.99 1.236 1.273 1.924.314.688.518 1.376.612 2.064.095.657.142 1.236.142 1.736Zm-7.681-.375c0-.97-.283-1.799-.849-2.487-.565-.688-1.492-1.032-2.78-1.032h-4.854v6.897h4.854c1.382 0 2.325-.328 2.827-.985.534-.657.802-1.455.802-2.393Zm-.849-12.387c0-.845-.267-1.549-.801-2.112-.503-.563-1.351-.844-2.545-.844h-4.288v5.818h4.524c.974 0 1.728-.266 2.262-.798.566-.531.848-1.22.848-2.064Z" fill="#F82323"/></svg>