<svg width="190" height="25" fill="none" xmlns="http://www.w3.org/2000/svg"><path d="M8.862 16.26H5.75v8.24H0V1.157h9.387c2.828 0 5.04.615 6.634 1.844 1.595 1.23 2.392 2.966 2.392 5.21 0 1.625-.339 2.972-1.016 4.04-.666 1.07-1.714 1.935-3.145 2.598l4.98 9.41v.241h-6.16l-4.21-8.24ZM5.75 11.915h3.637c1.092 0 1.91-.278 2.457-.834.557-.566.835-1.352.835-2.356 0-1.005-.278-1.79-.835-2.357-.557-.577-1.376-.866-2.457-.866H5.75v6.413ZM21.886 24.5V1.157h8.567c3.07 0 5.401.55 6.996 1.652 1.605 1.1 2.408 2.698 2.408 4.793 0 1.208-.284 2.24-.852 3.094-.568.856-1.404 1.486-2.507 1.892 1.245.32 2.201.92 2.867 1.796.666.876 1 1.945 1 3.206 0 2.287-.743 4.008-2.229 5.163-1.474 1.143-3.664 1.726-6.569 1.747h-9.681Zm5.75-9.924v5.595h3.768c1.037 0 1.834-.23 2.391-.689.557-.47.836-1.128.836-1.972 0-1.945-.989-2.923-2.965-2.934h-4.03Zm0-3.687h2.998c1.256-.01 2.151-.235 2.686-.673.535-.439.803-1.085.803-1.94 0-.984-.29-1.69-.868-2.117-.579-.438-1.513-.657-2.802-.657h-2.817v5.387ZM51.094 1.157l5.325 16.24 5.307-16.24h7.569V24.5h-5.767v-5.45l.557-11.16L58.32 24.5h-3.8L48.735 7.875l.556 11.174V24.5h-5.75V1.157h7.552ZM99.857 21.294c-.885.962-2.18 1.736-3.883 2.324-1.704.588-3.571.882-5.602.882-3.124 0-5.62-.935-7.487-2.806-1.867-1.87-2.867-4.473-2.998-7.807l-.016-2.02c0-2.298.415-4.302 1.245-6.012.83-1.721 2.015-3.041 3.555-3.96C86.22.965 88.013.5 90.044.5c2.97 0 5.275.668 6.913 2.004 1.65 1.325 2.61 3.308 2.883 5.948h-5.537c-.196-1.304-.622-2.234-1.278-2.79-.655-.555-1.583-.833-2.784-.833-1.442 0-2.556.598-3.342 1.795-.787 1.197-1.185 2.907-1.196 5.13v1.411c0 2.33.404 4.083 1.212 5.259.82 1.165 2.102 1.747 3.85 1.747 1.496 0 2.61-.326 3.342-.978V15.57h-3.998v-3.864h9.748v9.588ZM112.061 15.939h-3.113v8.24h-5.749V.837h9.386c2.829 0 5.04.614 6.635 1.843 1.594 1.23 2.391 2.966 2.391 5.21 0 1.625-.338 2.972-1.015 4.04-.666 1.07-1.715 1.935-3.145 2.598l4.98 9.41v.241h-6.16l-4.21-8.24Zm-3.113-4.345h3.637c1.092 0 1.911-.278 2.457-.833.557-.567.836-1.353.836-2.357 0-1.005-.279-1.79-.836-2.357-.557-.577-1.376-.866-2.457-.866h-3.637v6.413ZM145.283 12.989c0 2.276-.431 4.291-1.294 6.044-.863 1.753-2.092 3.105-3.686 4.056-1.584.94-3.391 1.41-5.422 1.41-2.032 0-3.834-.453-5.406-1.362-1.573-.919-2.802-2.228-3.686-3.928-.874-1.699-1.333-3.65-1.376-5.851v-1.315c0-2.287.426-4.302 1.278-6.044.862-1.753 2.091-3.105 3.685-4.056 1.606-.951 3.43-1.427 5.472-1.427 2.02 0 3.822.47 5.406 1.41 1.583.941 2.812 2.283 3.686 4.025.884 1.731 1.332 3.72 1.343 5.964v1.074Zm-5.848-.978c0-2.32-.399-4.077-1.196-5.275-.786-1.207-1.917-1.811-3.391-1.811-2.883 0-4.407 2.116-4.571 6.349l-.016 1.715c0 2.287.388 4.045 1.163 5.274.776 1.23 1.928 1.844 3.457 1.844 1.452 0 2.572-.604 3.358-1.811.786-1.208 1.185-2.945 1.196-5.21V12.01ZM166.956.837v15.278c0 1.732-.377 3.233-1.13 4.505-.754 1.261-1.835 2.223-3.244 2.886-1.409.663-3.074.994-4.996.994-2.905 0-5.193-.738-6.864-2.212-1.671-1.475-2.523-3.495-2.556-6.06V.836h5.783V16.34c.065 2.554 1.278 3.831 3.637 3.831 1.19 0 2.091-.32 2.703-.962.611-.64.917-1.683.917-3.126V.837h5.75ZM176.31 16.26v7.92h-5.75V.836h9.518c1.824 0 3.434.331 4.832.994 1.409.652 2.496 1.587 3.26 2.805.776 1.208 1.163 2.581 1.163 4.12 0 2.277-.835 4.1-2.506 5.467-1.66 1.358-3.943 2.036-6.848 2.036h-3.669Zm0-4.345h3.768c1.114 0 1.96-.273 2.539-.818.59-.545.884-1.314.884-2.308 0-1.09-.3-1.962-.901-2.614-.6-.652-1.419-.983-2.457-.994h-3.833v6.734Z" fill="#2C2E35"/></svg>